<?xml version="1.0" standalone="no"?><!DOCTYPE svg PUBLIC "-//W3C//DTD SVG 1.1//EN" "http://www.w3.org/Graphics/SVG/1.1/DTD/svg11.dtd"><svg t="1501815562865" class="icon" style="" viewBox="0 0 1024 1024" version="1.1" xmlns="http://www.w3.org/2000/svg" p-id="5498" xmlns:xlink="http://www.w3.org/1999/xlink" width="32" height="32"><defs><style type="text/css"></style></defs><path d="M511.290337 100.42727c-204.600865 0-370.474706 165.857469-370.474706 370.474706S306.689473 841.375659 511.290337 841.375659c204.616214 0 370.47266-165.857469 370.47266-370.474706S715.907575 100.42727 511.290337 100.42727zM511.290337 809.159934c-84.769662 0-162.130587-31.584346-221.559095-83.273589 12.742209-76.228125 53.592592-121.090892 126.768195-139.620921l60.545958-15.352663-47.583738-40.425711c-26.049283-22.116717-40.992623-54.426587-40.992623-88.654132 0-63.926962 51.515281-115.898637 114.829282-115.898637 63.297628 0 114.813932 51.971675 114.813932 115.898637 0 34.259268-14.976086 66.600861-41.072441 88.718601l-47.520293 40.330544 60.388369 15.44783c73.128531 18.717294 113.335255 62.73174 126.579907 138.549519l0.864694 5.034666 1.11745 7.772011C661.149437 782.293029 589.375763 809.159934 511.290337 809.159934zM746.974128 713.051015c-12.789281-64.965617-49.172933-132.354424-149.090597-157.930939 32.042787-27.182083 52.445466-67.827805 52.445466-113.288183 0-81.796958-65.830311-148.114362-147.029658-148.114362s-147.043984 66.317405-147.043984 148.114362c0 45.428655 20.369933 86.043678 52.333926 113.194038-93.437066 23.688515-131.360793 83.494623-146.335856 143.992485-55.213509-60.214407-89.221044-140.185786-89.221044-228.116441 0-186.527231 151.748123-338.260004 338.260004-338.260004 186.510858 0 338.257957 151.732773 338.257957 338.260004C849.548294 565.784974 810.130539 651.544173 746.974128 713.051015z" p-id="5499"></path></svg>