<?xml version="1.0" standalone="no"?><!DOCTYPE svg PUBLIC "-//W3C//DTD SVG 1.1//EN" "http://www.w3.org/Graphics/SVG/1.1/DTD/svg11.dtd"><svg t="1501815776711" class="icon" style="" viewBox="0 0 1024 1024" version="1.1" xmlns="http://www.w3.org/2000/svg" p-id="11860" xmlns:xlink="http://www.w3.org/1999/xlink" width="32" height="32"><defs><style type="text/css"></style></defs><path d="M512 962c-60.7 0-119.7-11.9-175.2-35.4-53.6-22.7-101.7-55.1-143-96.4-41.3-41.3-73.8-89.4-96.4-143C73.9 631.7 62 572.7 62 512s11.9-119.7 35.4-175.2c22.7-53.6 55.1-101.7 96.4-143s89.4-73.8 143-96.4C392.3 73.9 451.3 62 512 62s119.7 11.9 175.2 35.4c53.6 22.7 101.7 55.1 143 96.4 41.3 41.3 73.8 89.4 96.4 143C950.1 392.3 962 451.3 962 512c0 63.5-13 124.9-38.5 182.4-4.5 10.1-16.3 14.6-26.4 10.2-10.1-4.5-14.6-16.3-10.2-26.4C910.2 625.8 922 569.9 922 512c0-226.1-183.9-410-410-410S102 285.9 102 512s183.9 410 410 410c66.2 0 132-16.1 190.2-46.7 9.8-5.1 21.9-1.4 27 8.4 5.1 9.8 1.4 21.9-8.4 27C656.9 944.3 584.7 962 512 962z" p-id="11861"></path><path d="M896.1 899.1l-1 0.1c-24.2 1.1-59-18.4-93.1-52.2l-12.6-12.5c-34.1-33.8-53.5-68.2-52.1-92 1-16.8 24.2-33.1 38.2-34.5 6.9-0.7 9.7 2.5 10.8 4.5 9.3 13.3 21.5 36.9 22.5 45.7l0.1 0.6-0.2 0.6c-1.3 4.8-5 7.4-8.3 9.7-4.3 3-6.7 5-6.6 9.9 0.1 1.5 2 8.1 24.5 30.9l9.6 9.5c22.5 21.8 29.1 23.7 30.6 23.8 4.9 0.2 7-2.2 10.1-6.3 2.4-3.2 5.1-6.8 10-8l0.6-0.2 0.6 0.1c9 1 32.8 13.3 46.6 22.8 2 1 5.5 4.4 3.8 12.6-2.7 12.9-18.2 33.3-34.1 34.9zM503 756.5c-130.1 0-190.8-62-193.3-64.6-9.4-9.9-16.2-26.9-16.2-40.6V479.2c0-7.2 3.8-13.5 9.5-17l-125-50.8c-11.5-4.7-18.3-13.7-18.4-24.3-0.1-10.6 6.7-19.7 18.1-24.5l302.7-127c12.7-5.3 31.2-5.4 44 0l298 124.6c11 4.6 17.9 13.5 18.3 23.9 0.1 2.8-0.2 5.5-1 8.2v0.1l0.2 106.2c0 11-8.9 20-20 20-11 0-20-8.9-20-20l-0.1-79.8-107.9 44.6c6.3 3.4 10.5 10 10.5 17.6v170.4c0 13.6-6.7 30.6-16 40.6-2.5 2.5-61.8 64.5-183.4 64.5z m-164.4-92.3c0.8 0.8 13.8 13.5 39.7 26.1 24.6 11.9 66.2 26.2 124.7 26.2 54 0 93-14.1 116.2-26 24.6-12.5 37.2-25.3 37.9-26 2.4-2.6 5.2-9.7 5.2-13.2V480.9c0-2 0.3-4 0.9-5.8l-141.4 58.4c-0.1 0-0.2 0.1-0.3 0.1-12.7 5-31 4.8-43.6-0.3l-145-59c0.4 1.6 0.6 3.2 0.6 4.9v172.1c-0.1 3.4 2.7 10.4 5.1 12.9zM223.5 386.7l269.4 109.5c3.1 1.3 10.6 1.3 13.8 0.1l270.7-111.8-268.5-112.1c-2.9-1.2-10.2-1.2-13.1 0L223.5 386.7z" p-id="11862"></path><path d="M816.7 578.9c-26.4 0-47.8-21.5-47.8-47.8 0-26.4 21.5-47.8 47.8-47.8s47.8 21.5 47.8 47.8c0 26.4-21.5 47.8-47.8 47.8z m0-55.6c-4.3 0-7.8 3.5-7.8 7.8s3.5 7.8 7.8 7.8 7.8-3.5 7.8-7.8-3.5-7.8-7.8-7.8z" p-id="11863"></path></svg>